<svg width="200" height="200" viewBox="0 0 200 200" fill="none" xmlns="http://www.w3.org/2000/svg">
<path fill-rule="evenodd" clip-rule="evenodd" d="M96.286 26.0503C97.5248 25.3615 98.9187 25 100.336 25C101.753 25 103.147 25.3615 104.386 26.0503L179.386 67.717C180.684 68.439 181.766 69.495 182.519 70.7755C183.272 72.0561 183.669 73.5147 183.669 75.0003V133.334C183.669 135.544 182.791 137.663 181.229 139.226C179.666 140.789 177.546 141.667 175.336 141.667C173.126 141.667 171.006 140.789 169.443 139.226C167.881 137.663 167.003 135.544 167.003 133.334V89.167L158.669 93.792V93.8253L108.111 118.959C105.71 120.152 103.056 120.749 100.375 120.699C97.6943 120.648 95.0652 119.951 92.711 118.667L19.9777 78.992C19.2368 78.5877 18.4388 78.2983 17.611 78.1337C16.8462 76.2481 16.7978 74.1478 17.4747 72.229C18.1517 70.3101 19.5074 68.7053 21.286 67.717L96.286 26.0503V26.0503ZM42.0027 109.992V141.667C42.0035 143.214 42.4351 144.731 43.249 146.046C44.0629 147.362 45.227 148.425 46.611 149.117L96.611 174.117C97.7677 174.695 99.043 174.996 100.336 174.996C101.629 174.996 102.904 174.695 104.061 174.117L154.061 149.117C155.445 148.425 156.609 147.362 157.423 146.046C158.237 144.731 158.669 143.214 158.669 141.667V114.534L107.978 138.234C105.61 139.341 103.014 139.876 100.401 139.795C97.7882 139.714 95.231 139.019 92.936 137.767L42.0027 110V109.992Z" fill="#a51c3d"/>
</svg>
